<mxfile host="app.diagrams.net" modified="2023-05-23T06:36:51.781Z" agent="Mozilla/5.0 (Windows NT 10.0; Win64; x64) AppleWebKit/537.36 (KHTML, like Gecko) Chrome/113.0.0.0 Safari/537.36" etag="meU-ktSOHT9SP93noZ1G" version="21.3.2" type="device">
  <diagram name="Page-1" id="2YBvvXClWsGukQMizWep">
    <mxGraphModel dx="1050" dy="573" grid="1" gridSize="10" guides="1" tooltips="1" connect="1" arrows="1" fold="1" page="1" pageScale="1" pageWidth="850" pageHeight="1100" math="0" shadow="0">
      <root>
        <mxCell id="0" />
        <mxCell id="1" parent="0" />
        <mxCell id="drem8hIzEslNzogFuknP-12" value="" style="endArrow=none;html=1;rounded=0;exitX=1;exitY=0.3333333333333333;exitDx=0;exitDy=0;exitPerimeter=0;entryX=0;entryY=0.5;entryDx=0;entryDy=0;strokeWidth=2;" parent="1" source="drem8hIzEslNzogFuknP-1" target="drem8hIzEslNzogFuknP-13" edge="1">
          <mxGeometry width="50" height="50" relative="1" as="geometry">
            <mxPoint x="440" y="200" as="sourcePoint" />
            <mxPoint x="150" y="150" as="targetPoint" />
          </mxGeometry>
        </mxCell>
        <mxCell id="drem8hIzEslNzogFuknP-13" value=":AddRecruitmentUI" style="rounded=0;whiteSpace=wrap;html=1;" parent="1" vertex="1">
          <mxGeometry x="250" y="110" width="120" height="60" as="geometry" />
        </mxCell>
        <mxCell id="drem8hIzEslNzogFuknP-15" value="" style="endArrow=none;html=1;rounded=0;exitX=1;exitY=0.5;exitDx=0;exitDy=0;entryX=0;entryY=0.5;entryDx=0;entryDy=0;strokeWidth=2;" parent="1" source="drem8hIzEslNzogFuknP-13" target="drem8hIzEslNzogFuknP-16" edge="1">
          <mxGeometry width="50" height="50" relative="1" as="geometry">
            <mxPoint x="440" y="200" as="sourcePoint" />
            <mxPoint x="490" y="150" as="targetPoint" />
          </mxGeometry>
        </mxCell>
        <mxCell id="drem8hIzEslNzogFuknP-16" value=":AddRecruitment" style="rounded=0;whiteSpace=wrap;html=1;" parent="1" vertex="1">
          <mxGeometry x="530" y="110" width="120" height="60" as="geometry" />
        </mxCell>
        <mxCell id="drem8hIzEslNzogFuknP-17" value="" style="endArrow=classic;html=1;rounded=0;" parent="1" edge="1">
          <mxGeometry width="50" height="50" relative="1" as="geometry">
            <mxPoint x="115" y="130" as="sourcePoint" />
            <mxPoint x="185" y="130" as="targetPoint" />
          </mxGeometry>
        </mxCell>
        <mxCell id="drem8hIzEslNzogFuknP-18" value="2.1: addNewRecruitment()" style="text;html=1;strokeColor=none;fillColor=none;align=center;verticalAlign=middle;whiteSpace=wrap;rounded=0;" parent="1" vertex="1">
          <mxGeometry x="380" y="90" width="150" height="30" as="geometry" />
        </mxCell>
        <mxCell id="drem8hIzEslNzogFuknP-19" value="2: createNewRecruitment()" style="text;html=1;strokeColor=none;fillColor=none;align=center;verticalAlign=middle;whiteSpace=wrap;rounded=0;" parent="1" vertex="1">
          <mxGeometry x="80" y="90" width="160" height="30" as="geometry" />
        </mxCell>
        <mxCell id="drem8hIzEslNzogFuknP-21" value="" style="endArrow=classic;html=1;rounded=0;" parent="1" edge="1">
          <mxGeometry width="50" height="50" relative="1" as="geometry">
            <mxPoint x="410" y="130" as="sourcePoint" />
            <mxPoint x="480" y="130" as="targetPoint" />
          </mxGeometry>
        </mxCell>
        <mxCell id="drem8hIzEslNzogFuknP-22" value="" style="endArrow=none;html=1;rounded=0;exitX=0.5;exitY=1;exitDx=0;exitDy=0;entryX=0.5;entryY=0;entryDx=0;entryDy=0;strokeWidth=2;" parent="1" source="drem8hIzEslNzogFuknP-16" target="drem8hIzEslNzogFuknP-29" edge="1">
          <mxGeometry width="50" height="50" relative="1" as="geometry">
            <mxPoint x="390" y="220" as="sourcePoint" />
            <mxPoint x="430" y="310" as="targetPoint" />
          </mxGeometry>
        </mxCell>
        <mxCell id="drem8hIzEslNzogFuknP-25" value="" style="endArrow=classic;html=1;rounded=0;" parent="1" edge="1">
          <mxGeometry width="50" height="50" relative="1" as="geometry">
            <mxPoint x="570" y="210" as="sourcePoint" />
            <mxPoint x="510" y="260" as="targetPoint" />
          </mxGeometry>
        </mxCell>
        <mxCell id="drem8hIzEslNzogFuknP-27" value="2.1.1.1: RecruitInfo()" style="text;html=1;strokeColor=none;fillColor=none;align=center;verticalAlign=middle;whiteSpace=wrap;rounded=0;" parent="1" vertex="1">
          <mxGeometry x="550" y="230" width="160" height="30" as="geometry" />
        </mxCell>
        <mxCell id="drem8hIzEslNzogFuknP-30" value="" style="endArrow=classic;html=1;rounded=0;" parent="1" edge="1">
          <mxGeometry width="50" height="50" relative="1" as="geometry">
            <mxPoint x="625" y="330" as="sourcePoint" />
            <mxPoint x="625" y="330" as="targetPoint" />
          </mxGeometry>
        </mxCell>
        <mxCell id="drem8hIzEslNzogFuknP-32" value="" style="endArrow=classic;html=1;rounded=0;" parent="1" edge="1">
          <mxGeometry width="50" height="50" relative="1" as="geometry">
            <mxPoint x="555" y="330" as="sourcePoint" />
            <mxPoint x="555" y="330" as="targetPoint" />
          </mxGeometry>
        </mxCell>
        <mxCell id="drem8hIzEslNzogFuknP-84" value="&lt;b&gt;sd&lt;/b&gt; Add new recruitment" style="shape=umlFrame;whiteSpace=wrap;html=1;pointerEvents=0;recursiveResize=0;container=1;collapsible=0;width=160;" parent="1" vertex="1">
          <mxGeometry x="25" y="60" width="975" height="330" as="geometry" />
        </mxCell>
        <mxCell id="drem8hIzEslNzogFuknP-109" value="1: startInterface()" style="text;html=1;strokeColor=none;fillColor=none;align=center;verticalAlign=middle;whiteSpace=wrap;rounded=0;" parent="drem8hIzEslNzogFuknP-84" vertex="1">
          <mxGeometry x="355" y="100" width="150" height="30" as="geometry" />
        </mxCell>
        <mxCell id="drem8hIzEslNzogFuknP-1" value="CompanyMember" style="shape=umlActor;verticalLabelPosition=bottom;verticalAlign=top;html=1;outlineConnect=0;" parent="drem8hIzEslNzogFuknP-84" vertex="1">
          <mxGeometry x="35" y="60" width="30" height="60" as="geometry" />
        </mxCell>
        <mxCell id="twtLeFDuSWqD80qAJFHP-5" value=":CompMember" style="rounded=0;whiteSpace=wrap;html=1;" vertex="1" parent="drem8hIzEslNzogFuknP-84">
          <mxGeometry x="775" y="50" width="160" height="60" as="geometry" />
        </mxCell>
        <mxCell id="twtLeFDuSWqD80qAJFHP-6" value="" style="endArrow=none;html=1;rounded=0;strokeWidth=2;exitX=1;exitY=0.5;exitDx=0;exitDy=0;entryX=0;entryY=0.5;entryDx=0;entryDy=0;" edge="1" parent="drem8hIzEslNzogFuknP-84" target="twtLeFDuSWqD80qAJFHP-5">
          <mxGeometry width="50" height="50" relative="1" as="geometry">
            <mxPoint x="625" y="79.5" as="sourcePoint" />
            <mxPoint x="785" y="79.5" as="targetPoint" />
          </mxGeometry>
        </mxCell>
        <mxCell id="twtLeFDuSWqD80qAJFHP-7" value="" style="endArrow=classic;html=1;rounded=0;" edge="1" parent="drem8hIzEslNzogFuknP-84">
          <mxGeometry width="50" height="50" relative="1" as="geometry">
            <mxPoint x="675" y="70" as="sourcePoint" />
            <mxPoint x="745" y="70" as="targetPoint" />
          </mxGeometry>
        </mxCell>
        <mxCell id="twtLeFDuSWqD80qAJFHP-8" value="2.1.1: getID()" style="text;html=1;strokeColor=none;fillColor=none;align=center;verticalAlign=middle;whiteSpace=wrap;rounded=0;" vertex="1" parent="drem8hIzEslNzogFuknP-84">
          <mxGeometry x="635" y="40" width="160" height="30" as="geometry" />
        </mxCell>
        <mxCell id="drem8hIzEslNzogFuknP-29" value="newRecruit:RecruitInfo" style="rounded=0;whiteSpace=wrap;html=1;" parent="drem8hIzEslNzogFuknP-84" vertex="1">
          <mxGeometry x="320" y="250" width="160" height="60" as="geometry" />
        </mxCell>
        <mxCell id="drem8hIzEslNzogFuknP-107" value="" style="endArrow=classic;html=1;rounded=0;" parent="1" edge="1">
          <mxGeometry width="50" height="50" relative="1" as="geometry">
            <mxPoint x="480" y="155" as="sourcePoint" />
            <mxPoint x="410" y="155" as="targetPoint" />
          </mxGeometry>
        </mxCell>
        <mxCell id="Hm5OGX_l1lOq_2YDy-Yi-1" value="&lt;b&gt;sd &lt;/b&gt;show recruitment list" style="shape=umlFrame;whiteSpace=wrap;html=1;pointerEvents=0;recursiveResize=0;container=1;collapsible=0;width=160;" parent="1" vertex="1">
          <mxGeometry x="25" y="470" width="975" height="320" as="geometry" />
        </mxCell>
        <mxCell id="Hm5OGX_l1lOq_2YDy-Yi-2" value="companyMember" style="shape=umlActor;verticalLabelPosition=bottom;verticalAlign=top;html=1;outlineConnect=0;" parent="Hm5OGX_l1lOq_2YDy-Yi-1" vertex="1">
          <mxGeometry x="35" y="90" width="30" height="60" as="geometry" />
        </mxCell>
        <mxCell id="Hm5OGX_l1lOq_2YDy-Yi-3" value="" style="endArrow=none;html=1;rounded=0;entryX=1;entryY=0.3333333333333333;entryDx=0;entryDy=0;strokeWidth=2;entryPerimeter=0;exitX=0;exitY=0.5;exitDx=0;exitDy=0;" parent="Hm5OGX_l1lOq_2YDy-Yi-1" source="Hm5OGX_l1lOq_2YDy-Yi-4" target="Hm5OGX_l1lOq_2YDy-Yi-2" edge="1">
          <mxGeometry width="50" height="50" relative="1" as="geometry">
            <mxPoint x="245" y="110" as="sourcePoint" />
            <mxPoint x="55" y="110" as="targetPoint" />
          </mxGeometry>
        </mxCell>
        <mxCell id="Hm5OGX_l1lOq_2YDy-Yi-4" value=":recruitmentlistUI" style="rounded=0;whiteSpace=wrap;html=1;" parent="Hm5OGX_l1lOq_2YDy-Yi-1" vertex="1">
          <mxGeometry x="225" y="80" width="120" height="60" as="geometry" />
        </mxCell>
        <mxCell id="Hm5OGX_l1lOq_2YDy-Yi-5" value="2: selectRecruitmentList()" style="text;html=1;strokeColor=none;fillColor=none;align=center;verticalAlign=middle;whiteSpace=wrap;rounded=0;" parent="Hm5OGX_l1lOq_2YDy-Yi-1" vertex="1">
          <mxGeometry x="75" y="60" width="140" height="30" as="geometry" />
        </mxCell>
        <mxCell id="Hm5OGX_l1lOq_2YDy-Yi-6" value="" style="endArrow=classic;html=1;rounded=0;" parent="Hm5OGX_l1lOq_2YDy-Yi-1" edge="1">
          <mxGeometry width="50" height="50" relative="1" as="geometry">
            <mxPoint x="95" y="100" as="sourcePoint" />
            <mxPoint x="165" y="100" as="targetPoint" />
          </mxGeometry>
        </mxCell>
        <mxCell id="Hm5OGX_l1lOq_2YDy-Yi-7" value=":showRecruitmentlist" style="rounded=0;whiteSpace=wrap;html=1;" parent="Hm5OGX_l1lOq_2YDy-Yi-1" vertex="1">
          <mxGeometry x="515" y="80" width="120" height="60" as="geometry" />
        </mxCell>
        <mxCell id="Hm5OGX_l1lOq_2YDy-Yi-8" value="" style="endArrow=none;html=1;rounded=0;entryX=0;entryY=0.5;entryDx=0;entryDy=0;strokeWidth=2;exitX=1;exitY=0.5;exitDx=0;exitDy=0;" parent="Hm5OGX_l1lOq_2YDy-Yi-1" source="Hm5OGX_l1lOq_2YDy-Yi-4" target="Hm5OGX_l1lOq_2YDy-Yi-7" edge="1">
          <mxGeometry width="50" height="50" relative="1" as="geometry">
            <mxPoint x="385" y="110" as="sourcePoint" />
            <mxPoint x="475" y="109.5" as="targetPoint" />
          </mxGeometry>
        </mxCell>
        <mxCell id="Hm5OGX_l1lOq_2YDy-Yi-9" value="2.1: showRecruitmentList()" style="text;html=1;strokeColor=none;fillColor=none;align=center;verticalAlign=middle;whiteSpace=wrap;rounded=0;" parent="Hm5OGX_l1lOq_2YDy-Yi-1" vertex="1">
          <mxGeometry x="355" y="60" width="150" height="30" as="geometry" />
        </mxCell>
        <mxCell id="Hm5OGX_l1lOq_2YDy-Yi-10" value="" style="endArrow=classic;html=1;rounded=0;" parent="Hm5OGX_l1lOq_2YDy-Yi-1" edge="1">
          <mxGeometry width="50" height="50" relative="1" as="geometry">
            <mxPoint x="395" y="99" as="sourcePoint" />
            <mxPoint x="465" y="99" as="targetPoint" />
          </mxGeometry>
        </mxCell>
        <mxCell id="Hm5OGX_l1lOq_2YDy-Yi-11" value="" style="endArrow=classic;html=1;rounded=0;" parent="Hm5OGX_l1lOq_2YDy-Yi-1" edge="1">
          <mxGeometry width="50" height="50" relative="1" as="geometry">
            <mxPoint x="465" y="130" as="sourcePoint" />
            <mxPoint x="395" y="130" as="targetPoint" />
          </mxGeometry>
        </mxCell>
        <mxCell id="Hm5OGX_l1lOq_2YDy-Yi-12" value="1: startInterface()" style="text;html=1;strokeColor=none;fillColor=none;align=center;verticalAlign=middle;whiteSpace=wrap;rounded=0;" parent="Hm5OGX_l1lOq_2YDy-Yi-1" vertex="1">
          <mxGeometry x="355" y="130" width="150" height="30" as="geometry" />
        </mxCell>
        <mxCell id="Hm5OGX_l1lOq_2YDy-Yi-17" value="" style="endArrow=none;html=1;rounded=0;strokeWidth=2;exitX=1;exitY=0.5;exitDx=0;exitDy=0;entryX=0;entryY=0.5;entryDx=0;entryDy=0;" parent="Hm5OGX_l1lOq_2YDy-Yi-1" source="Hm5OGX_l1lOq_2YDy-Yi-7" target="Hm5OGX_l1lOq_2YDy-Yi-18" edge="1">
          <mxGeometry width="50" height="50" relative="1" as="geometry">
            <mxPoint x="585" y="150" as="sourcePoint" />
            <mxPoint x="485" y="250" as="targetPoint" />
          </mxGeometry>
        </mxCell>
        <mxCell id="Hm5OGX_l1lOq_2YDy-Yi-18" value=":CompMember" style="rounded=0;whiteSpace=wrap;html=1;" parent="Hm5OGX_l1lOq_2YDy-Yi-1" vertex="1">
          <mxGeometry x="795" y="80" width="160" height="60" as="geometry" />
        </mxCell>
        <mxCell id="Hm5OGX_l1lOq_2YDy-Yi-19" value="2.1.1: getID()" style="text;html=1;strokeColor=none;fillColor=none;align=center;verticalAlign=middle;whiteSpace=wrap;rounded=0;" parent="Hm5OGX_l1lOq_2YDy-Yi-1" vertex="1">
          <mxGeometry x="635" y="60" width="160" height="30" as="geometry" />
        </mxCell>
        <mxCell id="Hm5OGX_l1lOq_2YDy-Yi-20" value="" style="endArrow=classic;html=1;rounded=0;" parent="Hm5OGX_l1lOq_2YDy-Yi-1" edge="1">
          <mxGeometry width="50" height="50" relative="1" as="geometry">
            <mxPoint x="680" y="100" as="sourcePoint" />
            <mxPoint x="750" y="100" as="targetPoint" />
          </mxGeometry>
        </mxCell>
        <mxCell id="twtLeFDuSWqD80qAJFHP-1" value="" style="endArrow=none;html=1;rounded=0;exitX=0.5;exitY=1;exitDx=0;exitDy=0;entryX=0.5;entryY=0;entryDx=0;entryDy=0;strokeWidth=2;" edge="1" parent="Hm5OGX_l1lOq_2YDy-Yi-1" source="Hm5OGX_l1lOq_2YDy-Yi-7" target="twtLeFDuSWqD80qAJFHP-2">
          <mxGeometry width="50" height="50" relative="1" as="geometry">
            <mxPoint x="665" y="160" as="sourcePoint" />
            <mxPoint x="505" y="300" as="targetPoint" />
          </mxGeometry>
        </mxCell>
        <mxCell id="twtLeFDuSWqD80qAJFHP-2" value=":RecruitInfo" style="rounded=0;whiteSpace=wrap;html=1;" vertex="1" parent="Hm5OGX_l1lOq_2YDy-Yi-1">
          <mxGeometry x="415" y="230" width="160" height="60" as="geometry" />
        </mxCell>
        <mxCell id="twtLeFDuSWqD80qAJFHP-3" value="" style="endArrow=classic;html=1;rounded=0;" edge="1" parent="Hm5OGX_l1lOq_2YDy-Yi-1">
          <mxGeometry width="50" height="50" relative="1" as="geometry">
            <mxPoint x="585" y="160" as="sourcePoint" />
            <mxPoint x="535" y="220" as="targetPoint" />
          </mxGeometry>
        </mxCell>
        <mxCell id="twtLeFDuSWqD80qAJFHP-4" value="2.1.1.1: showRecruitmentList()" style="text;html=1;strokeColor=none;fillColor=none;align=center;verticalAlign=middle;whiteSpace=wrap;rounded=0;" vertex="1" parent="Hm5OGX_l1lOq_2YDy-Yi-1">
          <mxGeometry x="575" y="180" width="175" height="30" as="geometry" />
        </mxCell>
      </root>
    </mxGraphModel>
  </diagram>
</mxfile>
